<?xml version="1.0" standalone="no"?>
<!DOCTYPE svg PUBLIC "-//W3C//DTD SVG 20010904//EN"
 "http://www.w3.org/TR/2001/REC-SVG-20010904/DTD/svg10.dtd">
<svg version="1.0" xmlns="http://www.w3.org/2000/svg"
 width="512.000000pt" height="512.000000pt" viewBox="0 0 512.000000 512.000000"
 preserveAspectRatio="xMidYMid meet">
<metadata>
Created by potrace 1.11, written by Peter Selinger 2001-2013
</metadata>
<g transform="translate(0.000000,512.000000) scale(0.100000,-0.100000)"
fill="#000000" stroke="none">
<path d="M0 2560 l0 -2560 2560 0 2560 0 0 2560 0 2560 -2560 0 -2560 0 0
-2560z m4298 900 c-1 -5 -250 -405 -553 -889 l-550 -880 -122 -1 -123 0 43 68
c23 38 274 438 557 890 l515 822 118 0 c72 0 117 -4 115 -10z m-1113 -24 c152
-40 252 -146 290 -308 29 -122 11 -286 -41 -389 -33 -67 -109 -138 -184 -173
-62 -29 -71 -31 -190 -31 -119 0 -128 1 -190 31 -149 71 -221 204 -222 409 -1
116 13 187 54 268 47 93 125 158 232 192 55 17 189 18 251 1z m-2158 -588 c67
-24 79 -32 188 -109 167 -118 241 -135 315 -73 37 32 67 88 76 143 4 23 9 41
12 41 5 0 226 -80 229 -83 3 -4 -25 -123 -37 -157 -53 -146 -194 -249 -340
-250 -120 0 -203 32 -340 130 -104 74 -170 109 -209 110 -70 0 -145 -69 -172
-158 l-12 -41 -108 55 c-60 30 -109 58 -109 63 0 20 42 128 66 168 37 63 101
121 169 154 78 38 184 40 272 7z m3273 -169 c167 -26 279 -132 321 -299 17
-67 16 -228 -1 -301 -28 -121 -104 -220 -203 -268 -209 -102 -470 -31 -565
154 -39 77 -52 140 -52 255 0 190 56 315 176 395 95 64 200 84 324 64z"/>
<path d="M3004 3260 c-70 -28 -98 -122 -92 -305 6 -180 44 -240 153 -240 64 0
100 23 130 81 17 34 20 59 20 189 0 133 -2 155 -22 197 -13 29 -35 55 -55 68
-34 21 -96 26 -134 10z"/>
<path d="M4175 2503 c-40 -11 -74 -44 -92 -91 -14 -38 -18 -75 -18 -192 0
-132 2 -149 24 -193 28 -57 65 -79 134 -79 56 0 91 20 122 73 18 30 20 52 20
199 0 181 -10 222 -66 263 -27 19 -89 30 -124 20z"/>
</g>
</svg>
